<?xml version="1.0" encoding="UTF-8"?>
<svg width="24px" height="24px" viewBox="0 0 24 24" version="1.1" xmlns="http://www.w3.org/2000/svg" xmlns:xlink="http://www.w3.org/1999/xlink">
    <title>阿里云</title>
    <g id="页面-1" stroke="none" stroke-width="1" fill="none" fill-rule="evenodd">
        <g id="阿里云" fill-rule="nonzero">
            <rect id="矩形" fill="#000000" opacity="0" x="0" y="0" width="24" height="24"></rect>
            <path d="M18.6878981,6 C20.5350318,6 22,7.52866242 22,9.37579618 L22,9.37579618 L22,15.2993631 C22,17.1464968 20.5350318,18.611465 18.6878981,18.611465 L18.6878981,18.611465 L14.2929936,18.611465 L15.3757962,17.0828025 L18.5605096,16.0636943 C19.133758,15.8726115 19.5159236,15.2993631 19.5159236,14.7261146 L19.5159236,14.7261146 L19.5159236,9.88535032 C19.5159236,9.31210191 19.133758,8.7388535 18.5605096,8.5477707 L18.5605096,8.5477707 L15.3757962,7.52866242 L14.2929936,6 Z M9.70700637,6 L8.62420382,7.52866242 L5.43949045,8.5477707 C4.86624204,8.7388535 4.48407643,9.31210191 4.48407643,9.88535032 L4.48407643,9.88535032 L4.48407643,14.7261146 C4.48407643,15.2993631 4.86624204,15.8726115 5.43949045,16.0636943 L5.43949045,16.0636943 L8.62420382,17.0191083 L9.70700637,18.5477707 L5.31210191,18.5477707 C3.46496815,18.5477707 2,17.0828025 2,15.2356688 L2,15.2356688 L2,9.37579618 C2,7.52866242 3.46496815,6 5.31210191,6 L5.31210191,6 L9.70700637,6 Z M15.3757962,11.477707 L15.3757962,13.0063694 L8.68789809,13.0063694 L8.68789809,11.477707 L15.3757962,11.477707 Z" id="形状结合" fill="#FF6A00"></path>
        </g>
    </g>
</svg>