<?xml version="1.0" encoding="UTF-8"?>
<svg width="580px" height="112px" viewBox="0 0 580 112" version="1.1" xmlns="http://www.w3.org/2000/svg" xmlns:xlink="http://www.w3.org/1999/xlink">
    <title>编组 5备份 5</title>
    <defs>
        <linearGradient x1="49.9999885%" y1="98.082503%" x2="49.9999885%" y2="0.766550128%" id="linearGradient-1">
            <stop stop-color="#ED1C23" offset="0%"></stop>
            <stop stop-color="#FBAF3B" offset="100%"></stop>
        </linearGradient>
    </defs>
    <g id="定稿" stroke="none" stroke-width="1" fill="none" fill-rule="evenodd">
        <g id="编组-5备份-5">
            <g id="编组备份-5" transform="translate(130.000000, 25.000000)" fill="#333344">
                <path d="M359.166187,24.9847091 C363.566381,24.9847091 367.703054,26.8048453 370.509864,29.9793589 C373.322802,33.1661294 374.572996,37.3334446 374.027568,41.7152539 C372.924455,50.6627247 364.30179,58.2251761 355.194981,58.2251761 C350.782529,58.2251761 346.645856,56.3989115 343.832918,53.2182695 C341.032237,50.0498842 339.788171,45.9070827 340.315214,41.5681722 C341.436712,32.5778025 350.065506,24.9847091 359.166187,24.9847091 Z M408.819747,26.3507305 L405.026265,57.0417811 L398.493385,57.0417811 L398.903988,53.7446994 C396.513911,56.116392 392.616245,58.2245632 388.246693,58.2245632 C384.882198,58.2245632 381.916051,56.9682403 379.905934,54.6884737 C377.852918,52.3658084 376.921401,49.1116255 377.332004,45.7593881 L379.630156,27.1841936 L386.261089,26.3507305 L383.926167,45.2507305 C383.668774,47.2547189 384.140661,48.9951858 385.268288,50.2760224 C386.518482,51.6855554 388.510214,52.4332208 391.010603,52.4332208 C394.908268,52.4332208 399.43716,49.4854582 399.976459,45.0975204 L402.194942,27.1841936 L408.819747,26.3507305 Z M312.758325,1.95657753 L313.58655,1.98365915 L314.743834,2.07245054 C314.961415,2.09425619 315.190666,2.12003153 315.430566,2.15047578 L316.989594,2.39476209 C319.773747,2.91393026 323.418727,4.03983497 326.904025,6.47170117 L328.219582,7.44950486 L327.042928,16.8811196 L325.990879,15.2957012 L325.596947,14.7991197 L324.945459,14.0717911 C322.992678,12.0246716 318.601488,8.48520525 311.59322,8.48520525 C299.973765,8.48520525 289.316469,18.2109835 287.845652,30.167501 C287.110243,36.0691547 288.6975,41.5785905 292.325516,45.6846216 C295.751294,49.5577733 300.641761,51.6965866 306.089912,51.6965866 C312.742017,51.6965866 317.784466,48.5684412 320.403366,46.4865073 L321.319741,45.7194265 L322.403726,44.6795632 L323.696819,43.2700302 L322.507909,52.8854971 L322.268901,53.0387072 C317.968696,55.8558381 313.734223,57.1508667 310.582271,57.7419812 L308.976493,57.9995154 L307.622098,58.1469367 L306.555756,58.2137514 L305.421916,58.2233375 C297.969776,58.2172091 291.295944,55.3062169 286.626099,50.0235321 C281.901099,44.6734348 279.811313,37.5644854 280.742831,30.0142909 C282.604604,15.0011414 295.972388,2.70140141 310.888921,1.99087445 L312.758325,1.95657753 Z M449.100525,0.000428988327 L442.034475,57.0436196 L435.507724,57.0436196 L436.010253,52.9866158 C433.191187,56.0263045 428.650039,58.1467325 424.593035,58.1467325 C420.045759,58.1467325 416.319689,56.6575302 413.825428,53.8323356 C411.220856,50.8907014 410.117743,46.6375885 410.70607,41.8635613 C411.944008,31.8865185 419.46356,24.9185224 429.005486,24.9185224 C433.001206,24.9185224 436.831459,27.0450788 438.841576,30.1889504 L442.304125,2.18214105 L449.100525,0.000428988327 Z M341.675107,0.00533171206 L334.609056,57.042394 L328.082305,57.042394 L334.884835,2.18704377 L341.675107,0.00533171206 Z M358.559475,31.070215 C352.663949,31.070215 347.657043,35.6481333 346.909377,41.7152539 C346.541673,44.6385029 347.289339,47.3227442 349.01142,49.2654484 C350.647704,51.1162267 353.062296,52.1396702 355.795564,52.1396702 C361.648191,52.1396702 366.624455,47.592394 367.365992,41.5681722 C367.739825,38.5836391 366.998288,35.856499 365.270078,33.9015379 C363.652179,32.0752733 361.26823,31.070215 358.559475,31.070215 Z M428.772607,30.9978998 C422.956751,30.9978998 418.176595,35.4716352 417.410545,41.6429387 C417.030584,44.676499 417.759864,47.4036391 419.451304,49.3218298 C421.014047,51.0868103 423.348969,52.0673551 426.014825,52.0673551 C431.87358,52.0673551 436.672121,47.6181333 437.425914,41.4897286 C437.812004,38.4010126 437.094981,35.6554874 435.409669,33.7434251 C433.816284,31.9478025 431.524261,30.9978998 428.772607,30.9978998 Z" id="形状结合"></path>
                <path d="M58.7861089,0.980360895 L62.8614981,57.0062364 L55.8996304,57.0062364 L53.7363035,20.8609056 L30.8038132,60.499427 L18.2957393,20.8425204 L7.01947471,57.0062364 L0.00245136187,57.0062364 L18.0935019,1.15808463 L32.6791051,45.0129484 L58.7861089,0.980360895 Z M246.450117,24.9528414 C250.972879,24.9528414 254.649922,26.4359154 257.082899,29.2365963 C259.758655,32.3196553 260.862638,36.9222685 260.308085,42.6009816 L260.061304,44.5698648 L234.744864,44.5698648 C235.155467,49.4113045 238.746712,52.175215 244.691265,52.175215 C249.302889,52.175215 252.041946,51.0686975 254.56821,49.7210159 L257.426089,48.1304679 L256.629397,54.5714212 L256.359747,54.7246313 C253.234261,56.4773551 249.710428,58.18718 244.102938,58.18718 C238.758969,58.18718 234.211693,56.3793006 231.319086,53.1006041 C228.788054,50.2386391 227.733969,46.4635418 228.261012,42.1920438 C229.658288,30.8728804 238.477062,24.9528414 246.450117,24.9528414 Z M86.3032588,24.9528414 C90.8260214,24.9528414 94.5030642,26.4359154 96.9360409,29.2365963 C99.6117966,32.3196553 100.71578,36.9222685 100.161227,42.6009816 L99.9144455,44.5698648 L74.5980058,44.5698648 C75.0086089,49.4113045 78.5998541,52.175215 84.5444066,52.175215 C88.6856761,52.175215 91.3170598,51.282383 93.6407785,50.1249763 L95.1575374,49.3210701 L97.2792315,48.1304679 L96.4825389,54.5714212 L96.2128891,54.7246313 C93.0874027,56.4773551 89.56357,58.18718 83.9560798,58.18718 C78.6121109,58.18718 74.0648346,56.3793006 71.1722276,53.1006041 C68.6411965,50.2386391 67.5871109,46.4635418 68.1141537,42.1920438 C69.51143,30.8728804 78.3302043,24.9528414 86.3032588,24.9528414 Z M197.063755,3.24358074 L194.08535,9.69679086 L169.608502,9.69679086 L167.439047,27.2301566 L184.359572,27.2301566 L184.359572,28.4558375 L184.053152,28.4558375 L181.799125,32.9969854 L181.797899,33.6098259 L166.648482,33.6098259 L163.743619,57.0080749 L156.775623,57.0080749 L163.443327,3.24358074 L197.063755,3.24358074 Z M216.917335,26.3096702 L216.390292,30.72825 C219.154202,28.2278609 223.879202,26.3832111 227.917821,26.3832111 L228.604202,26.3832111 L227.911693,32.2113239 L227.366265,32.2113239 C222.733191,32.2113239 215.955175,34.3501372 215.366848,39.1057792 L213.154494,57.0068492 L206.621615,57.0068492 L210.323171,27.1492617 L216.917335,26.3096702 Z M141.621916,24.9491644 C144.177461,24.9491644 146.549154,26.0400204 148.301877,28.0256235 C150.446819,30.4524718 151.427364,33.8721216 150.992247,37.4143395 L148.553142,57.0068492 L142.099932,57.0068492 L144.453239,37.9965379 C144.784173,35.3980944 144.385827,33.3757208 143.307228,32.1561683 C142.473765,31.2185224 141.22357,30.7405068 139.581158,30.7405068 C134.592636,30.7405068 131.46715,34.1785418 131.074932,37.4143395 L128.635827,57.0068492 L122.109076,57.0068492 L124.462383,37.9965379 C124.787189,35.3674523 124.401099,33.332822 123.334757,32.1316547 C122.519679,31.2062656 121.28787,30.7405068 119.663842,30.7405068 C115.778434,30.7405068 111.237286,33.7189115 110.68573,38.1497481 L108.356936,57.0068492 L101.824056,57.0068492 L105.53787,27.0757208 L112.162675,26.321927 L111.788842,29.2942033 C114.4118,26.5425496 117.966274,24.9491644 121.63106,24.9491644 C125.142636,24.9491644 128.219095,26.9654095 129.867636,30.2686196 C132.202558,27.3821411 135.101294,24.9491644 141.621916,24.9491644 Z M203.997432,26.321927 L200.173307,57.0068492 L193.640428,57.0068492 L197.354241,27.0757208 L203.997432,26.321927 Z M245.837276,31.1118881 C241.008093,31.1118881 237.232996,33.9064407 235.590584,38.6375691 L253.89,38.6375691 C253.951284,36.8787169 253.283288,35.0095535 252.069864,33.6429193 C250.605175,31.98825 248.454105,31.1118881 245.837276,31.1118881 Z M85.6965467,31.1118881 C80.8673638,31.1118881 77.0861381,33.9064407 75.4437257,38.6375691 L93.7370136,38.6375691 C93.8044261,36.8787169 93.13643,35.0095535 91.9230058,33.6429193 C90.4583171,31.98825 88.3072471,31.1118881 85.6965467,31.1118881 Z M201.746469,11.6682986 C204.093648,11.6682986 206.103765,13.5803609 206.226333,15.9275399 C206.287617,17.07968 205.901527,18.1644076 205.12322,18.9794854 C204.351041,19.7945632 203.284698,20.2480652 202.132558,20.2480652 C199.791508,20.2480652 197.781391,18.3360029 197.652695,15.9888239 C197.591411,14.8366839 197.983628,13.7519562 198.761936,12.9368784 C199.540243,12.1218006 200.600457,11.6682986 201.746469,11.6682986 Z" id="形状结合"></path>
            </g>
            <g id="MemFireDB备份-7">
                <polygon id="Fill-1" fill="#F9AE7C" points="25.9728553 40.7912363 47.4268317 0.00591833831 1.15453123 26.7215251"></polygon>
                <polygon id="Fill-3" fill="#F9AE7C" points="97.4213117 26.7267606 51.1285247 0.000910513587 72.4242993 40.8351686"></polygon>
                <polygon id="Fill-5" fill="#F9904A" points="24.8347133 42.7618153 0.000455256793 28.682999 0.000455256793 82.1608764"></polygon>
                <polygon id="Fill-7" fill="url(#linearGradient-1)" points="27.6634514 42.4662399 49.279044 109.05096 70.7296059 42.507213 49.2779058 1.3747617"></polygon>
                <polygon id="Fill-9" fill="#F9904A" points="98.5660549 28.6951771 73.5622137 42.8047233 98.5660549 82.1719163"></polygon>
                <polygon id="Fill-13" fill="#FB6D33" points="72.2987623 45.061545 50.7514582 111.900071 97.579172 84.8646465"></polygon>
                <polygon id="Fill-15" fill="#FB6D33" points="26.1006687 45.0226206 0.987565799 84.8644188 47.8095888 111.898705"></polygon>
                <path d="M60.0737516,38.507213 C59.3168872,35.669825 57.0462939,33.3514298 57.0462939,33.3514298 C57.0462939,33.3514298 57.0804382,35.8849338 56.2894295,37.513615 C55.4847631,39.1696116 53.8765685,40.3054773 53.8765685,40.3054773 C53.8765685,40.3054773 56.1016361,33.8840802 54.2715038,30.1247973 C52.0259496,25.5073552 49.1771803,23.3357803 49.1771803,23.3357803 C49.1771803,23.3357803 50.1070423,28.1319107 48.6240432,31.5065016 C47.1672215,34.8264618 42.8058614,36.7260208 40.7241997,38.7132167 C39.1865699,40.1791435 38.0814341,43.0711623 37.6068289,44.4847347 C37.5715465,44.5883056 37.560165,44.6918765 37.5533362,44.7943093 C37.584066,43.9816759 37.8890881,39.8024186 40.9654858,37.4293925 C43.8404325,35.2111538 41.2431925,30.3478731 41.2431925,30.3478731 C41.2431925,30.3478731 41.7212121,32.5638355 40.9939394,34.1401622 C40.2655285,35.7153507 38.7187936,36.5962726 38.0154218,38.259098 C37.3883056,39.7409589 37.5203301,44.1432921 37.5453692,44.8409731 C37.5453692,44.8591834 37.5476455,44.8762555 37.5476455,44.8921895 C37.5476455,44.9263338 37.5487836,44.9456822 37.5487836,44.9456822 L37.5487836,44.9115379 C37.5590269,45.2655001 37.7138142,45.6080808 37.9972116,45.8448143 L48.3713757,55.6442168 C48.8380139,56.0323232 49.5163466,56.0334614 49.9841229,55.6476312 L60.5938825,45.7105136 C60.9034571,45.4544316 61.0719021,45.0686015 61.0457249,44.6656992 C60.9546735,43.2282259 60.5699815,40.3692133 60.0737516,38.507213" id="Fill-17" fill="#FFFFFF"></path>
            </g>
        </g>
    </g>
</svg>