<?xml version="1.0" encoding="UTF-8"?>
<svg width="99px" height="112px" viewBox="0 0 99 112" version="1.1" xmlns="http://www.w3.org/2000/svg" xmlns:xlink="http://www.w3.org/1999/xlink">
    <title>MemFireDB备份 6</title>
    <defs>
        <linearGradient x1="49.9999885%" y1="98.082503%" x2="49.9999885%" y2="0.766550128%" id="linearGradient-1">
            <stop stop-color="#ED1C23" offset="0%"></stop>
            <stop stop-color="#FBAF3B" offset="100%"></stop>
        </linearGradient>
    </defs>
    <g id="定稿" stroke="none" stroke-width="1" fill="none" fill-rule="evenodd">
        <g id="MemFireDB备份-6">
            <polygon id="Fill-1" fill="#F9AE7C" points="25.9728553 40.7912363 47.4268317 0.00591833831 1.15453123 26.7215251"></polygon>
            <polygon id="Fill-3" fill="#F9AE7C" points="97.4213117 26.7267606 51.1285247 0.000910513587 72.4242993 40.8351686"></polygon>
            <polygon id="Fill-5" fill="#F9904A" points="24.8347133 42.7618153 0.000455256793 28.682999 0.000455256793 82.1608764"></polygon>
            <polygon id="Fill-7" fill="url(#linearGradient-1)" points="27.6634514 42.4662399 49.279044 109.05096 70.7296059 42.507213 49.2779058 1.3747617"></polygon>
            <polygon id="Fill-9" fill="#F9904A" points="98.5660549 28.6951771 73.5622137 42.8047233 98.5660549 82.1719163"></polygon>
            <polygon id="Fill-13" fill="#FB6D33" points="72.2987623 45.061545 50.7514582 111.900071 97.579172 84.8646465"></polygon>
            <polygon id="Fill-15" fill="#FB6D33" points="26.1006687 45.0226206 0.987565799 84.8644188 47.8095888 111.898705"></polygon>
            <path d="M60.0737516,38.507213 C59.3168872,35.669825 57.0462939,33.3514298 57.0462939,33.3514298 C57.0462939,33.3514298 57.0804382,35.8849338 56.2894295,37.513615 C55.4847631,39.1696116 53.8765685,40.3054773 53.8765685,40.3054773 C53.8765685,40.3054773 56.1016361,33.8840802 54.2715038,30.1247973 C52.0259496,25.5073552 49.1771803,23.3357803 49.1771803,23.3357803 C49.1771803,23.3357803 50.1070423,28.1319107 48.6240432,31.5065016 C47.1672215,34.8264618 42.8058614,36.7260208 40.7241997,38.7132167 C39.1865699,40.1791435 38.0814341,43.0711623 37.6068289,44.4847347 C37.5715465,44.5883056 37.560165,44.6918765 37.5533362,44.7943093 C37.584066,43.9816759 37.8890881,39.8024186 40.9654858,37.4293925 C43.8404325,35.2111538 41.2431925,30.3478731 41.2431925,30.3478731 C41.2431925,30.3478731 41.7212121,32.5638355 40.9939394,34.1401622 C40.2655285,35.7153507 38.7187936,36.5962726 38.0154218,38.259098 C37.3883056,39.7409589 37.5203301,44.1432921 37.5453692,44.8409731 C37.5453692,44.8591834 37.5476455,44.8762555 37.5476455,44.8921895 C37.5476455,44.9263338 37.5487836,44.9456822 37.5487836,44.9456822 L37.5487836,44.9115379 C37.5590269,45.2655001 37.7138142,45.6080808 37.9972116,45.8448143 L48.3713757,55.6442168 C48.8380139,56.0323232 49.5163466,56.0334614 49.9841229,55.6476312 L60.5938825,45.7105136 C60.9034571,45.4544316 61.0719021,45.0686015 61.0457249,44.6656992 C60.9546735,43.2282259 60.5699815,40.3692133 60.0737516,38.507213" id="Fill-17" fill="#FFFFFF"></path>
        </g>
    </g>
</svg>